<svg xmlns="http://www.w3.org/2000/svg" xmlns:xlink="http://www.w3.org/1999/xlink" width="300" zoomAndPan="magnify" viewBox="0 0 224.87999 44.999999" height="60" preserveAspectRatio="xMidYMid meet" version="1.0"><defs><g/><clipPath id="5840bd6823"><path d="M 7.421875 4.507812 L 43.96875 4.507812 L 43.96875 40.683594 L 7.421875 40.683594 Z M 7.421875 4.507812 " clip-rule="nonzero"/></clipPath><clipPath id="ca00f27e43"><path d="M 9.667969 4.507812 L 41.582031 4.507812 C 42.179688 4.507812 42.75 4.746094 43.171875 5.167969 C 43.59375 5.589844 43.832031 6.160156 43.832031 6.757812 L 43.832031 38.355469 C 43.832031 38.949219 43.59375 39.523438 43.171875 39.945312 C 42.75 40.367188 42.179688 40.601562 41.582031 40.601562 L 9.667969 40.601562 C 9.074219 40.601562 8.5 40.367188 8.078125 39.945312 C 7.65625 39.523438 7.421875 38.949219 7.421875 38.355469 L 7.421875 6.757812 C 7.421875 6.160156 7.65625 5.589844 8.078125 5.167969 C 8.5 4.746094 9.074219 4.507812 9.667969 4.507812 " clip-rule="nonzero"/></clipPath><clipPath id="0201dc975d"><path d="M 9.003906 7.683594 L 41.988281 7.683594 L 41.988281 37.667969 L 9.003906 37.667969 Z M 9.003906 7.683594 " clip-rule="nonzero"/></clipPath><clipPath id="9cab695d05"><path d="M 13.628906 19 L 31 19 L 31 35.304688 L 13.628906 35.304688 Z M 13.628906 19 " clip-rule="nonzero"/></clipPath><clipPath id="fd16d0a660"><path d="M 19 12.816406 L 27 12.816406 L 27 20 L 19 20 Z M 19 12.816406 " clip-rule="nonzero"/></clipPath><clipPath id="4acaad59a3"><path d="M 29 21 L 36.117188 21 L 36.117188 29 L 29 29 Z M 29 21 " clip-rule="nonzero"/></clipPath></defs><g clip-path="url(#5840bd6823)"><g clip-path="url(#ca00f27e43)"><path fill="#000000" d="M 7.421875 4.507812 L 43.78125 4.507812 L 43.78125 40.683594 L 7.421875 40.683594 Z M 7.421875 4.507812 " fill-opacity="1" fill-rule="nonzero"/></g></g><g clip-path="url(#0201dc975d)"><path fill="#f1f1f1" d="M 20.761719 10.082031 C 21.53125 9.9375 22.308594 9.835938 23.089844 9.777344 C 23.265625 9.765625 23.390625 9.734375 23.464844 9.609375 C 23.59375 9.398438 23.824219 9.320312 24.140625 9.296875 C 25 9.230469 25.847656 9.226562 26.707031 9.285156 C 27.121094 9.316406 27.398438 9.421875 27.558594 9.695312 C 27.621094 9.800781 27.726562 9.839844 27.886719 9.851562 C 28.226562 9.875 28.5625 9.914062 28.894531 9.957031 C 29.328125 10.015625 29.757812 10.089844 30.210938 10.164062 C 30.132812 9.902344 30.011719 9.679688 29.875 9.460938 C 29.355469 8.625 28.519531 8.054688 27.28125 7.824219 C 26.347656 7.652344 25.402344 7.667969 24.457031 7.722656 C 23.867188 7.757812 23.300781 7.875 22.777344 8.078125 C 21.675781 8.5 21.136719 9.226562 20.761719 10.082031 Z M 9.671875 10.84375 C 10.042969 10.984375 10.394531 11.179688 10.710938 11.425781 C 11.398438 11.957031 11.875 12.589844 12.316406 13.238281 C 12.804688 13.957031 13.191406 14.707031 13.554688 15.46875 C 13.625 15.425781 13.632812 15.371094 13.644531 15.320312 C 13.832031 14.71875 14.050781 14.121094 14.328125 13.539062 C 14.820312 12.503906 15.484375 11.550781 16.6875 10.847656 C 16.808594 10.777344 16.796875 10.726562 16.707031 10.644531 C 16.328125 10.289062 15.914062 9.957031 15.433594 9.671875 C 15.054688 9.445312 14.617188 9.332031 14.121094 9.339844 C 13.035156 9.359375 12.042969 9.617188 11.105469 9.996094 C 10.5625 10.214844 10.058594 10.46875 9.671875 10.84375 Z M 23.996094 10.097656 L 23.882812 10.113281 C 23.867188 10.109375 23.847656 10.101562 23.832031 10.101562 C 22.40625 10.179688 20.992188 10.308594 19.617188 10.617188 C 18.148438 10.945312 17.011719 11.589844 16.222656 12.554688 C 15.59375 13.320312 15.25 14.171875 14.9375 15.023438 C 14.609375 15.917969 14.382812 16.828125 14.179688 17.738281 C 13.855469 19.210938 13.605469 20.691406 13.375 22.171875 C 13.207031 23.25 13.050781 24.332031 12.90625 25.417969 C 12.699219 26.953125 12.515625 28.492188 12.5 30.039062 C 12.488281 31.394531 12.53125 32.75 13.105469 34.058594 C 13.480469 34.917969 14.128906 35.625 15.21875 36.09375 C 16.351562 36.582031 17.589844 36.84375 18.855469 37.042969 C 20.730469 37.335938 22.636719 37.433594 24.550781 37.457031 C 26.605469 37.480469 28.660156 37.441406 30.703125 37.226562 C 32.199219 37.066406 33.664062 36.824219 35.050781 36.371094 C 36.3125 35.957031 37.234375 35.3125 37.734375 34.355469 C 38.234375 33.40625 38.402344 32.414062 38.460938 31.410156 C 38.59375 29.144531 38.292969 26.890625 37.976562 24.640625 C 37.746094 22.992188 37.492188 21.339844 37.1875 19.695312 C 37.003906 18.6875 36.804688 17.683594 36.546875 16.6875 C 36.246094 15.527344 35.886719 14.382812 35.269531 13.289062 C 34.511719 11.953125 33.246094 11.011719 31.316406 10.609375 C 28.925781 10.105469 26.472656 9.984375 23.996094 10.097656 Z M 39.074219 24.050781 C 39.074219 24.183594 39.082031 24.3125 39.125 24.441406 L 39.277344 25.496094 C 39.257812 25.5625 39.269531 25.625 39.3125 25.710938 C 39.347656 25.625 39.425781 25.574219 39.402344 25.5 L 39.863281 23.847656 C 39.894531 23.785156 39.925781 23.726562 39.90625 23.65625 C 39.996094 23.507812 40.015625 23.34375 40.070312 23.1875 C 40.40625 22.234375 40.636719 21.265625 40.851562 20.296875 C 41.085938 19.234375 41.289062 18.164062 41.554688 17.101562 C 41.875 15.792969 42.019531 14.480469 41.957031 13.15625 C 41.933594 12.664062 41.902344 12.171875 41.722656 11.660156 C 41.570312 11.746094 41.441406 11.8125 41.324219 11.890625 C 40.792969 12.25 40.417969 12.691406 40.082031 13.152344 C 39.121094 14.460938 38.496094 15.863281 37.914062 17.277344 C 37.886719 17.347656 37.902344 17.417969 37.917969 17.488281 C 38.222656 18.773438 38.441406 20.0625 38.648438 21.355469 C 38.789062 22.253906 38.929688 23.152344 39.074219 24.050781 Z M 9.109375 12.003906 C 9.011719 12.285156 9.019531 12.574219 9.019531 12.859375 C 9.015625 14.15625 9.207031 15.445312 9.441406 16.730469 C 9.644531 17.847656 9.921875 18.953125 10.199219 20.0625 C 10.460938 21.136719 10.734375 22.210938 11.019531 23.28125 C 11.296875 24.296875 11.394531 25.332031 11.5 26.363281 C 11.507812 26.4375 11.488281 26.519531 11.5625 26.59375 C 11.574219 26.574219 11.59375 26.558594 11.59375 26.539062 C 11.78125 25.027344 11.996094 23.519531 12.238281 22.015625 C 12.476562 20.550781 12.703125 19.082031 13.035156 17.625 C 13.078125 17.433594 13.132812 17.25 13.035156 17.050781 C 12.84375 16.65625 12.695312 16.253906 12.511719 15.863281 C 12.019531 14.824219 11.5 13.792969 10.71875 12.84375 C 10.402344 12.460938 10.074219 12.078125 9.566406 11.804688 C 9.449219 11.734375 9.324219 11.605469 9.1875 11.652344 C 9.074219 11.6875 9.113281 11.84375 9.09375 11.949219 C 9.089844 11.96875 9.105469 11.988281 9.109375 12.003906 Z M 39.660156 9.941406 C 38.585938 9.566406 37.460938 9.378906 36.324219 9.390625 C 35.996094 9.390625 35.675781 9.484375 35.398438 9.664062 C 34.929688 9.964844 34.601562 10.34375 34.324219 10.746094 C 34.265625 10.828125 34.328125 10.863281 34.398438 10.90625 C 34.71875 11.097656 35.015625 11.324219 35.285156 11.582031 C 36.214844 12.46875 36.691406 13.5 37.082031 14.558594 C 37.199219 14.882812 37.308594 15.207031 37.433594 15.570312 C 37.816406 14.78125 38.1875 14.027344 38.671875 13.3125 C 39.261719 12.4375 39.898438 11.589844 41.007812 10.992188 L 41.148438 10.925781 L 41.273438 10.875 C 41.390625 10.84375 41.320312 10.8125 41.273438 10.78125 C 41.25 10.71875 41.191406 10.671875 41.121094 10.628906 C 41.0625 10.546875 40.96875 10.492188 40.859375 10.449219 C 40.621094 10.285156 40.339844 10.164062 40.042969 10.0625 C 39.917969 10.015625 39.808594 9.949219 39.660156 9.941406 Z M 39.660156 9.941406 " fill-opacity="1" fill-rule="evenodd"/></g><g fill="#000000" fill-opacity="1"><g transform="translate(47.639418, 33.968878)"><g><path d="M 14.40625 -16.3125 C 14.320312 -17.21875 13.9375 -17.914062 13.25 -18.40625 C 12.570312 -18.90625 11.65625 -19.15625 10.5 -19.15625 C 9.3125 -19.15625 8.398438 -18.910156 7.765625 -18.421875 C 7.128906 -17.941406 6.8125 -17.335938 6.8125 -16.609375 C 6.800781 -15.785156 7.15625 -15.160156 7.875 -14.734375 C 8.59375 -14.316406 9.445312 -13.992188 10.4375 -13.765625 L 12.5 -13.265625 C 13.820312 -12.972656 15 -12.539062 16.03125 -11.96875 C 17.070312 -11.40625 17.882812 -10.675781 18.46875 -9.78125 C 19.0625 -8.894531 19.359375 -7.816406 19.359375 -6.546875 C 19.359375 -4.453125 18.578125 -2.78125 17.015625 -1.53125 C 15.453125 -0.289062 13.269531 0.328125 10.46875 0.328125 C 7.695312 0.328125 5.484375 -0.304688 3.828125 -1.578125 C 2.171875 -2.847656 1.3125 -4.71875 1.25 -7.1875 L 5.9375 -7.1875 C 6.019531 -6.039062 6.472656 -5.175781 7.296875 -4.59375 C 8.117188 -4.019531 9.160156 -3.734375 10.421875 -3.734375 C 11.648438 -3.734375 12.628906 -3.992188 13.359375 -4.515625 C 14.097656 -5.035156 14.472656 -5.710938 14.484375 -6.546875 C 14.472656 -7.328125 14.128906 -7.925781 13.453125 -8.34375 C 12.785156 -8.757812 11.832031 -9.117188 10.59375 -9.421875 L 8.09375 -10.046875 C 6.164062 -10.503906 4.640625 -11.234375 3.515625 -12.234375 C 2.398438 -13.242188 1.847656 -14.59375 1.859375 -16.28125 C 1.847656 -17.664062 2.21875 -18.878906 2.96875 -19.921875 C 3.71875 -20.960938 4.75 -21.769531 6.0625 -22.34375 C 7.375 -22.925781 8.863281 -23.21875 10.53125 -23.21875 C 12.226562 -23.21875 13.710938 -22.925781 14.984375 -22.34375 C 16.253906 -21.757812 17.242188 -20.945312 17.953125 -19.90625 C 18.660156 -18.875 19.023438 -17.675781 19.046875 -16.3125 Z M 14.40625 -16.3125 "/></g></g></g><g fill="#000000" fill-opacity="1"><g transform="translate(68.255675, 33.968878)"><g><path d="M 6.65625 -9.921875 L 6.65625 0 L 1.90625 0 L 1.90625 -22.890625 L 6.53125 -22.890625 L 6.53125 -14.140625 L 6.734375 -14.140625 C 7.128906 -15.160156 7.753906 -15.957031 8.609375 -16.53125 C 9.472656 -17.101562 10.554688 -17.390625 11.859375 -17.390625 C 13.648438 -17.390625 15.085938 -16.816406 16.171875 -15.671875 C 17.265625 -14.523438 17.804688 -12.945312 17.796875 -10.9375 L 17.796875 0 L 13.03125 0 L 13.03125 -10.078125 C 13.039062 -11.140625 12.773438 -11.960938 12.234375 -12.546875 C 11.691406 -13.140625 10.9375 -13.4375 9.96875 -13.4375 C 9 -13.4375 8.207031 -13.128906 7.59375 -12.515625 C 6.976562 -11.898438 6.664062 -11.035156 6.65625 -9.921875 Z M 6.65625 -9.921875 "/></g></g></g><g fill="#000000" fill-opacity="1"><g transform="translate(87.910438, 33.968878)"><g><path d="M 9.65625 0.328125 C 7.925781 0.328125 6.425781 -0.0390625 5.15625 -0.78125 C 3.894531 -1.519531 2.921875 -2.550781 2.234375 -3.875 C 1.546875 -5.207031 1.203125 -6.753906 1.203125 -8.515625 C 1.203125 -10.296875 1.546875 -11.847656 2.234375 -13.171875 C 2.921875 -14.503906 3.894531 -15.539062 5.15625 -16.28125 C 6.425781 -17.019531 7.925781 -17.390625 9.65625 -17.390625 C 11.394531 -17.390625 12.894531 -17.019531 14.15625 -16.28125 C 15.425781 -15.539062 16.398438 -14.503906 17.078125 -13.171875 C 17.765625 -11.847656 18.109375 -10.296875 18.109375 -8.515625 C 18.109375 -6.753906 17.765625 -5.207031 17.078125 -3.875 C 16.398438 -2.550781 15.425781 -1.519531 14.15625 -0.78125 C 12.894531 -0.0390625 11.394531 0.328125 9.65625 0.328125 Z M 9.6875 -3.359375 C 10.863281 -3.359375 11.753906 -3.847656 12.359375 -4.828125 C 12.960938 -5.816406 13.265625 -7.054688 13.265625 -8.546875 C 13.265625 -10.046875 12.960938 -11.289062 12.359375 -12.28125 C 11.753906 -13.269531 10.863281 -13.765625 9.6875 -13.765625 C 8.476562 -13.765625 7.566406 -13.269531 6.953125 -12.28125 C 6.347656 -11.289062 6.046875 -10.046875 6.046875 -8.546875 C 6.046875 -7.054688 6.347656 -5.816406 6.953125 -4.828125 C 7.566406 -3.847656 8.476562 -3.359375 9.6875 -3.359375 Z M 9.6875 -3.359375 "/></g></g></g><g fill="#000000" fill-opacity="1"><g transform="translate(107.2298, 33.968878)"><g><path d="M 5.28125 0 L 0.609375 -17.171875 L 5.4375 -17.171875 L 8.09375 -5.640625 L 8.25 -5.640625 L 11.03125 -17.171875 L 15.75 -17.171875 L 18.578125 -5.703125 L 18.71875 -5.703125 L 21.328125 -17.171875 L 26.140625 -17.171875 L 21.484375 0 L 16.4375 0 L 13.484375 -10.796875 L 13.265625 -10.796875 L 10.3125 0 Z M 5.28125 0 "/></g></g></g><g fill="#000000" fill-opacity="1"><g transform="translate(133.99517, 33.968878)"><g><path d="M 5.28125 0 L 0.609375 -17.171875 L 5.4375 -17.171875 L 8.09375 -5.640625 L 8.25 -5.640625 L 11.03125 -17.171875 L 15.75 -17.171875 L 18.578125 -5.703125 L 18.71875 -5.703125 L 21.328125 -17.171875 L 26.140625 -17.171875 L 21.484375 0 L 16.4375 0 L 13.484375 -10.796875 L 13.265625 -10.796875 L 10.3125 0 Z M 5.28125 0 "/></g></g></g><g fill="#000000" fill-opacity="1"><g transform="translate(160.760541, 33.968878)"><g><path d="M 6.796875 0.328125 C 5.160156 0.328125 3.800781 -0.0976562 2.71875 -0.953125 C 1.632812 -1.816406 1.09375 -3.097656 1.09375 -4.796875 C 1.09375 -6.078125 1.394531 -7.082031 2 -7.8125 C 2.601562 -8.539062 3.394531 -9.070312 4.375 -9.40625 C 5.351562 -9.75 6.410156 -9.972656 7.546875 -10.078125 C 9.035156 -10.234375 10.097656 -10.390625 10.734375 -10.546875 C 11.378906 -10.710938 11.703125 -11.070312 11.703125 -11.625 L 11.703125 -11.6875 C 11.703125 -12.394531 11.476562 -12.941406 11.03125 -13.328125 C 10.59375 -13.722656 9.96875 -13.921875 9.15625 -13.921875 C 8.300781 -13.921875 7.617188 -13.734375 7.109375 -13.359375 C 6.597656 -12.984375 6.265625 -12.507812 6.109375 -11.9375 L 1.703125 -12.296875 C 2.023438 -13.859375 2.835938 -15.097656 4.140625 -16.015625 C 5.441406 -16.929688 7.117188 -17.390625 9.171875 -17.390625 C 10.453125 -17.390625 11.644531 -17.1875 12.75 -16.78125 C 13.863281 -16.382812 14.757812 -15.757812 15.4375 -14.90625 C 16.125 -14.050781 16.46875 -12.941406 16.46875 -11.578125 L 16.46875 0 L 11.953125 0 L 11.953125 -2.375 L 11.8125 -2.375 C 11.394531 -1.582031 10.769531 -0.929688 9.9375 -0.421875 C 9.113281 0.078125 8.066406 0.328125 6.796875 0.328125 Z M 8.15625 -2.96875 C 9.207031 -2.96875 10.066406 -3.269531 10.734375 -3.875 C 11.398438 -4.476562 11.734375 -5.234375 11.734375 -6.140625 L 11.734375 -7.953125 C 11.546875 -7.828125 11.253906 -7.71875 10.859375 -7.625 C 10.472656 -7.53125 10.054688 -7.445312 9.609375 -7.375 C 9.171875 -7.300781 8.78125 -7.238281 8.4375 -7.1875 C 7.59375 -7.070312 6.914062 -6.835938 6.40625 -6.484375 C 5.894531 -6.128906 5.640625 -5.617188 5.640625 -4.953125 C 5.640625 -4.296875 5.875 -3.800781 6.34375 -3.46875 C 6.820312 -3.132812 7.425781 -2.96875 8.15625 -2.96875 Z M 8.15625 -2.96875 "/></g></g></g><g fill="#000000" fill-opacity="1"><g transform="translate(179.028968, 33.968878)"><g><path d="M 6.65625 -9.921875 L 6.65625 0 L 1.90625 0 L 1.90625 -17.171875 L 6.4375 -17.171875 L 6.4375 -14.140625 L 6.640625 -14.140625 C 7.023438 -15.140625 7.660156 -15.929688 8.546875 -16.515625 C 9.441406 -17.097656 10.53125 -17.390625 11.8125 -17.390625 C 13.59375 -17.390625 15.023438 -16.8125 16.109375 -15.65625 C 17.191406 -14.507812 17.734375 -12.9375 17.734375 -10.9375 L 17.734375 0 L 12.96875 0 L 12.96875 -10.078125 C 12.976562 -11.128906 12.707031 -11.953125 12.15625 -12.546875 C 11.613281 -13.140625 10.867188 -13.4375 9.921875 -13.4375 C 8.953125 -13.4375 8.164062 -13.128906 7.5625 -12.515625 C 6.96875 -11.898438 6.664062 -11.035156 6.65625 -9.921875 Z M 6.65625 -9.921875 "/></g></g></g><g fill="#000000" fill-opacity="1"><g transform="translate(198.605478, 33.968878)"><g><path d="M 8.234375 0.28125 C 6.921875 0.28125 5.738281 -0.0546875 4.6875 -0.734375 C 3.644531 -1.410156 2.8125 -2.40625 2.1875 -3.71875 C 1.570312 -5.03125 1.265625 -6.644531 1.265625 -8.5625 C 1.265625 -10.53125 1.582031 -12.164062 2.21875 -13.46875 C 2.851562 -14.78125 3.695312 -15.757812 4.75 -16.40625 C 5.8125 -17.0625 6.96875 -17.390625 8.21875 -17.390625 C 9.175781 -17.390625 9.976562 -17.226562 10.625 -16.90625 C 11.269531 -16.582031 11.789062 -16.179688 12.1875 -15.703125 C 12.59375 -15.234375 12.898438 -14.757812 13.109375 -14.28125 L 13.25 -14.28125 L 13.25 -22.890625 L 18 -22.890625 L 18 0 L 13.3125 0 L 13.3125 -2.75 L 13.109375 -2.75 C 12.890625 -2.269531 12.570312 -1.796875 12.15625 -1.328125 C 11.75 -0.867188 11.222656 -0.484375 10.578125 -0.171875 C 9.929688 0.128906 9.148438 0.28125 8.234375 0.28125 Z M 9.734375 -3.515625 C 10.878906 -3.515625 11.765625 -3.976562 12.390625 -4.90625 C 13.023438 -5.832031 13.34375 -7.0625 13.34375 -8.59375 C 13.34375 -10.125 13.03125 -11.34375 12.40625 -12.25 C 11.78125 -13.15625 10.890625 -13.609375 9.734375 -13.609375 C 8.554688 -13.609375 7.660156 -13.144531 7.046875 -12.21875 C 6.429688 -11.289062 6.125 -10.082031 6.125 -8.59375 C 6.125 -7.09375 6.429688 -5.867188 7.046875 -4.921875 C 7.671875 -3.984375 8.566406 -3.515625 9.734375 -3.515625 Z M 9.734375 -3.515625 "/></g></g></g><g clip-path="url(#9cab695d05)"><path fill="#000000" d="M 29.742188 20.417969 L 28.761719 19.453125 C 28.335938 19.035156 27.617188 19.035156 27.195312 19.453125 L 14.089844 32.371094 C 13.667969 32.792969 13.667969 33.5 14.089844 33.917969 L 15.070312 34.886719 C 15.496094 35.304688 16.214844 35.304688 16.640625 34.886719 L 29.742188 21.964844 C 30.167969 21.546875 30.167969 20.839844 29.742188 20.417969 Z M 28.730469 21.675781 L 25.953125 24.414062 C 25.722656 24.640625 25.332031 24.640625 25.101562 24.414062 L 24.742188 24.058594 C 24.515625 23.835938 24.515625 23.449219 24.742188 23.222656 L 27.519531 20.484375 C 27.75 20.257812 28.140625 20.257812 28.371094 20.484375 L 28.730469 20.839844 C 28.957031 21.0625 28.957031 21.449219 28.730469 21.675781 Z M 28.730469 21.675781 " fill-opacity="1" fill-rule="nonzero"/></g><g clip-path="url(#fd16d0a660)"><path fill="#000000" d="M 26.703125 16.261719 L 24.21875 15.265625 L 23.207031 12.816406 L 22.945312 12.816406 L 21.933594 15.265625 L 19.449219 16.261719 L 19.449219 16.519531 L 21.933594 17.519531 L 22.945312 19.96875 L 23.207031 19.96875 L 24.21875 17.519531 L 26.703125 16.519531 Z M 24.875 16.457031 L 23.566406 16.8125 L 23.207031 18.101562 L 23.042969 18.101562 L 22.683594 16.8125 L 21.378906 16.457031 L 21.378906 16.328125 L 22.683594 15.972656 L 23.042969 14.683594 L 23.175781 14.683594 L 23.535156 15.972656 L 24.839844 16.328125 L 24.839844 16.457031 Z M 24.875 16.457031 " fill-opacity="1" fill-rule="nonzero"/></g><path fill="#000000" d="M 35.625 16.296875 L 33.726562 15.554688 L 32.976562 13.6875 L 32.78125 13.6875 L 32.03125 15.554688 L 30.101562 16.296875 L 30.101562 16.488281 L 31.996094 17.230469 L 32.75 19.097656 L 32.945312 19.097656 L 33.695312 17.230469 L 35.589844 16.488281 Z M 34.1875 16.425781 L 33.171875 16.714844 L 32.878906 17.714844 L 32.78125 17.714844 L 32.519531 16.714844 L 31.507812 16.425781 L 31.507812 16.328125 L 32.519531 16.039062 L 32.8125 15.039062 L 32.910156 15.039062 L 33.207031 16.039062 L 34.21875 16.328125 L 34.21875 16.425781 Z M 34.1875 16.425781 " fill-opacity="1" fill-rule="nonzero"/><g clip-path="url(#4acaad59a3)"><path fill="#000000" d="M 36.046875 24.898438 L 33.859375 24.027344 L 32.976562 21.835938 L 32.75 21.835938 L 31.867188 24.027344 L 29.644531 24.898438 L 29.644531 25.125 L 31.867188 25.992188 L 32.75 28.183594 L 32.976562 28.183594 L 33.859375 25.992188 L 36.082031 25.125 Z M 34.414062 25.058594 L 33.238281 25.382812 L 32.910156 26.539062 L 32.8125 26.539062 L 32.488281 25.382812 L 31.308594 25.058594 L 31.308594 24.960938 L 32.488281 24.640625 L 32.8125 23.480469 L 32.910156 23.480469 L 33.238281 24.640625 L 34.414062 24.960938 Z M 34.414062 25.058594 " fill-opacity="1" fill-rule="nonzero"/></g></svg>