<svg xmlns="http://www.w3.org/2000/svg" xmlns:xlink="http://www.w3.org/1999/xlink" width="128" zoomAndPan="magnify" viewBox="0 0 96 95.999999" height="128" preserveAspectRatio="xMidYMid meet" version="1.0"><defs><clipPath id="6dc97c290e"><path d="M 2.796875 9.601562 L 93.367188 9.601562 L 93.367188 91.589844 L 2.796875 91.589844 Z M 2.796875 9.601562 " clip-rule="nonzero"/></clipPath><clipPath id="5f4d945ff1"><path d="M 15.046875 39 L 61 39 L 61 84.90625 L 15.046875 84.90625 Z M 15.046875 39 " clip-rule="nonzero"/></clipPath><clipPath id="8082a433ba"><path d="M 31 21.984375 L 52 21.984375 L 52 42 L 31 42 Z M 31 21.984375 " clip-rule="nonzero"/></clipPath></defs><rect x="-9.6" width="115.2" fill="#ffffff" y="-9.6" height="115.199999" fill-opacity="1"/><rect x="-9.6" width="115.2" fill="#ffffff" y="-9.6" height="115.199999" fill-opacity="1"/><rect x="-9.6" width="115.2" fill="#131720" y="-9.6" height="115.199999" fill-opacity="1"/><g clip-path="url(#6dc97c290e)"><path fill="#f1f1f1" d="M 35.085938 16.152344 C 37.199219 15.761719 39.335938 15.484375 41.476562 15.320312 C 41.960938 15.285156 42.300781 15.203125 42.507812 14.863281 C 42.863281 14.289062 43.492188 14.070312 44.363281 14.003906 C 46.71875 13.828125 49.050781 13.816406 51.410156 13.976562 C 52.546875 14.054688 53.304688 14.34375 53.742188 15.09375 C 53.914062 15.386719 54.207031 15.496094 54.652344 15.527344 C 55.578125 15.59375 56.496094 15.691406 57.414062 15.8125 C 58.605469 15.972656 59.785156 16.175781 61.023438 16.378906 C 60.808594 15.660156 60.476562 15.050781 60.105469 14.453125 C 58.675781 12.167969 56.386719 10.613281 52.980469 9.984375 C 50.417969 9.511719 47.828125 9.550781 45.234375 9.703125 C 43.609375 9.796875 42.058594 10.117188 40.613281 10.675781 C 37.597656 11.832031 36.113281 13.8125 35.085938 16.152344 Z M 4.628906 18.238281 C 5.652344 18.625 6.613281 19.160156 7.480469 19.828125 C 9.378906 21.28125 10.683594 23.007812 11.890625 24.78125 C 13.234375 26.746094 14.292969 28.800781 15.289062 30.882812 C 15.488281 30.761719 15.503906 30.617188 15.546875 30.480469 C 16.054688 28.832031 16.652344 27.203125 17.414062 25.609375 C 18.773438 22.78125 20.585938 20.164062 23.890625 18.246094 C 24.222656 18.050781 24.195312 17.917969 23.953125 17.691406 C 22.90625 16.722656 21.773438 15.808594 20.457031 15.03125 C 19.414062 14.417969 18.214844 14.105469 16.855469 14.128906 C 13.863281 14.175781 11.144531 14.882812 8.566406 15.917969 C 7.078125 16.511719 5.695312 17.210938 4.628906 18.238281 Z M 43.960938 16.195312 L 43.652344 16.242188 C 43.605469 16.230469 43.558594 16.207031 43.515625 16.210938 C 39.597656 16.425781 35.714844 16.769531 31.941406 17.613281 C 27.902344 18.519531 24.785156 20.277344 22.617188 22.914062 C 20.894531 25.015625 19.953125 27.335938 19.089844 29.671875 C 18.191406 32.113281 17.570312 34.601562 17.015625 37.09375 C 16.117188 41.117188 15.4375 45.164062 14.796875 49.214844 C 14.335938 52.167969 13.910156 55.125 13.515625 58.085938 C 12.945312 62.289062 12.441406 66.496094 12.402344 70.726562 C 12.367188 74.433594 12.480469 78.136719 14.058594 81.714844 C 15.09375 84.066406 16.871094 85.996094 19.867188 87.28125 C 22.972656 88.617188 26.367188 89.335938 29.847656 89.878906 C 35 90.679688 40.234375 90.945312 45.488281 91.003906 C 51.132812 91.070312 56.773438 90.972656 62.375 90.378906 C 66.484375 89.945312 70.511719 89.285156 74.324219 88.039062 C 77.789062 86.910156 80.316406 85.148438 81.691406 82.527344 C 83.058594 79.929688 83.523438 77.21875 83.683594 74.472656 C 84.042969 68.277344 83.21875 62.121094 82.351562 55.96875 C 81.714844 51.453125 81.023438 46.941406 80.1875 42.441406 C 79.679688 39.6875 79.136719 36.941406 78.421875 34.214844 C 77.59375 31.046875 76.613281 27.914062 74.914062 24.921875 C 72.84375 21.273438 69.359375 18.695312 64.070312 17.59375 C 57.496094 16.21875 50.765625 15.886719 43.960938 16.195312 Z M 85.363281 54.351562 C 85.367188 54.710938 85.382812 55.070312 85.507812 55.417969 L 85.925781 58.304688 C 85.867188 58.488281 85.898438 58.660156 86.015625 58.894531 C 86.113281 58.652344 86.328125 58.515625 86.261719 58.3125 L 87.527344 53.792969 C 87.617188 53.625 87.699219 53.460938 87.652344 53.277344 C 87.898438 52.863281 87.953125 52.417969 88.105469 51.988281 C 89.023438 49.386719 89.652344 46.742188 90.242188 44.09375 C 90.890625 41.175781 91.449219 38.25 92.171875 35.34375 C 93.058594 31.769531 93.457031 28.179688 93.285156 24.554688 C 93.21875 23.214844 93.132812 21.867188 92.636719 20.472656 C 92.222656 20.707031 91.863281 20.882812 91.546875 21.09375 C 90.089844 22.078125 89.054688 23.292969 88.128906 24.546875 C 85.492188 28.125 83.78125 31.960938 82.183594 35.828125 C 82.101562 36.027344 82.148438 36.210938 82.195312 36.40625 C 83.023438 39.914062 83.625 43.445312 84.191406 46.980469 C 84.585938 49.4375 84.972656 51.894531 85.363281 54.351562 Z M 3.089844 21.414062 C 2.824219 22.179688 2.839844 22.964844 2.835938 23.746094 C 2.828125 27.296875 3.359375 30.816406 4 34.332031 C 4.554688 37.386719 5.324219 40.414062 6.074219 43.441406 C 6.796875 46.382812 7.550781 49.316406 8.335938 52.246094 C 9.089844 55.03125 9.363281 57.851562 9.648438 60.671875 C 9.671875 60.878906 9.621094 61.101562 9.820312 61.304688 C 9.859375 61.246094 9.90625 61.207031 9.910156 61.160156 C 10.425781 57.027344 11.015625 52.898438 11.683594 48.789062 C 12.332031 44.777344 12.953125 40.765625 13.867188 36.78125 C 13.988281 36.257812 14.136719 35.75 13.863281 35.207031 C 13.335938 34.136719 12.9375 33.035156 12.429688 31.960938 C 11.082031 29.117188 9.652344 26.296875 7.503906 23.707031 C 6.632812 22.660156 5.734375 21.617188 4.339844 20.867188 C 4.023438 20.671875 3.679688 20.320312 3.300781 20.445312 C 2.988281 20.546875 3.101562 20.976562 3.042969 21.261719 C 3.03125 21.308594 3.070312 21.363281 3.089844 21.414062 Z M 86.96875 15.769531 C 84.027344 14.746094 80.929688 14.234375 77.816406 14.261719 C 76.914062 14.261719 76.03125 14.519531 75.273438 15.007812 C 73.984375 15.832031 73.085938 16.867188 72.320312 17.972656 C 72.160156 18.199219 72.332031 18.289062 72.53125 18.40625 C 73.40625 18.929688 74.226562 19.550781 74.964844 20.253906 C 77.515625 22.679688 78.816406 25.503906 79.894531 28.398438 C 80.222656 29.28125 80.511719 30.171875 80.859375 31.167969 C 81.914062 29 82.929688 26.945312 84.261719 24.984375 C 85.886719 22.597656 87.628906 20.273438 90.671875 18.644531 L 91.066406 18.460938 L 91.40625 18.324219 C 91.722656 18.238281 91.53125 18.15625 91.40625 18.070312 C 91.34375 17.890625 91.179688 17.765625 90.984375 17.652344 C 90.824219 17.429688 90.566406 17.277344 90.269531 17.15625 C 89.609375 16.707031 88.839844 16.378906 88.023438 16.105469 C 87.6875 15.96875 87.378906 15.789062 86.96875 15.769531 Z M 86.96875 15.769531 " fill-opacity="1" fill-rule="evenodd"/></g><g clip-path="url(#5f4d945ff1)"><path fill="#000000" d="M 59.449219 43.257812 L 56.75 40.554688 C 55.578125 39.382812 53.597656 39.382812 52.425781 40.554688 L 16.320312 76.703125 C 15.148438 77.875 15.148438 79.859375 16.320312 81.03125 L 19.019531 83.734375 C 20.191406 84.90625 22.171875 84.90625 23.34375 83.734375 L 59.449219 47.585938 C 60.621094 46.414062 60.621094 44.429688 59.449219 43.257812 Z M 56.660156 46.773438 L 49.003906 54.4375 C 48.375 55.070312 47.292969 55.070312 46.664062 54.4375 L 45.671875 53.445312 C 45.042969 52.816406 45.042969 51.734375 45.671875 51.101562 L 53.328125 43.4375 C 53.957031 42.808594 55.039062 42.808594 55.667969 43.4375 L 56.660156 44.429688 C 57.289062 45.0625 57.289062 46.144531 56.660156 46.773438 Z M 56.660156 46.773438 " fill-opacity="1" fill-rule="nonzero"/></g><g clip-path="url(#8082a433ba)"><path fill="#000000" d="M 51.074219 31.628906 L 44.234375 28.835938 L 41.441406 21.984375 L 40.722656 21.984375 L 37.929688 28.835938 L 31.085938 31.628906 L 31.085938 32.351562 L 37.929688 35.144531 L 40.722656 41.996094 L 41.441406 41.996094 L 44.234375 35.144531 L 51.074219 32.351562 Z M 46.035156 32.171875 L 42.433594 33.164062 L 41.441406 36.769531 L 40.992188 36.769531 L 40 33.164062 L 36.398438 32.171875 L 36.398438 31.808594 L 40 30.820312 L 40.992188 27.214844 L 41.351562 27.214844 L 42.339844 30.820312 L 45.941406 31.808594 L 45.941406 32.171875 Z M 46.035156 32.171875 " fill-opacity="1" fill-rule="nonzero"/></g><path fill="#000000" d="M 75.65625 31.71875 L 70.433594 29.648438 L 68.363281 24.417969 L 67.824219 24.417969 L 65.753906 29.648438 L 60.441406 31.71875 L 60.441406 32.261719 L 65.664062 34.335938 L 67.734375 39.5625 L 68.273438 39.5625 L 70.34375 34.335938 L 75.566406 32.261719 Z M 71.695312 32.082031 L 68.902344 32.890625 L 68.09375 35.6875 L 67.824219 35.6875 L 67.101562 32.890625 L 64.3125 32.082031 L 64.3125 31.808594 L 67.101562 31 L 67.914062 28.203125 L 68.183594 28.203125 L 68.992188 31 L 71.785156 31.808594 L 71.785156 32.082031 Z M 71.695312 32.082031 " fill-opacity="1" fill-rule="nonzero"/><path fill="#000000" d="M 76.828125 55.789062 L 70.792969 53.355469 L 68.363281 47.226562 L 67.734375 47.226562 L 65.300781 53.355469 L 59.179688 55.789062 L 59.179688 56.421875 L 65.300781 58.855469 L 67.734375 64.984375 L 68.363281 64.984375 L 70.792969 58.855469 L 76.917969 56.421875 Z M 72.324219 56.242188 L 69.082031 57.140625 L 68.183594 60.386719 L 67.914062 60.386719 L 67.011719 57.140625 L 63.773438 56.242188 L 63.773438 55.96875 L 67.011719 55.070312 L 67.914062 51.824219 L 68.183594 51.824219 L 69.082031 55.070312 L 72.324219 55.96875 Z M 72.324219 56.242188 " fill-opacity="1" fill-rule="nonzero"/></svg>